<svg preserveAspectRatio="none" width="100%" height="100%" overflow="visible" style="display: block;" viewBox="0 0 89 71" fill="none" xmlns="http://www.w3.org/2000/svg">
<path id="&#226;&#128;&#156;" opacity="0.08" d="M89 7.30882C81.0428 12.7034 74.6424 18.3591 69.7988 24.2757C64.9553 30.1924 62.2741 36.6311 61.7551 43.5919L61.2362 39.6765C63.4849 38.8064 65.5607 38.3713 67.4636 38.3713C72.1341 38.3713 75.7668 39.8505 78.3615 42.8088C81.1293 45.7672 82.5131 48.9865 82.5131 52.4669C82.5131 57.3395 80.6968 61.69 77.0641 65.5184C73.4315 69.1728 68.8474 71 63.312 71C58.8144 71 54.9223 69.3468 51.6356 66.0404C48.3489 62.7341 46.7055 58.1225 46.7055 52.2059C46.7055 45.2451 48.5219 38.6324 52.1545 32.3677C55.9602 25.9289 60.7172 20.0123 66.4257 14.6176C72.3071 9.04902 78.5345 4.17647 85.1079 0L89 7.30882ZM42.5539 7.30882C34.7697 12.7034 28.3693 18.3591 23.3528 24.2757C18.5092 30.1924 15.7415 36.6311 15.0496 43.5919L14.7901 39.6765C17.0389 38.8064 19.2012 38.3713 21.277 38.3713C25.6016 38.3713 29.1477 39.8505 31.9155 42.8088C34.6832 45.7672 36.0671 48.9865 36.0671 52.4669C36.0671 57.3395 34.2507 61.69 30.6181 65.5184C26.9854 69.1728 22.4879 71 17.1254 71C12.4548 71 8.3897 69.3468 4.93003 66.0404C1.64334 62.7341 0 58.1225 0 52.2059C0 45.2451 1.90282 38.6324 5.70846 32.3677C9.51409 25.9289 14.3576 19.9252 20.2391 14.3566C26.1205 8.78799 32.1749 4.00245 38.4023 0L42.5539 7.30882Z" fill="var(--fill-0, #6E1603)"/>
</svg>
