<svg preserveAspectRatio="none" width="100%" height="100%" overflow="visible" style="display: block;" viewBox="0 0 29 26" fill="none" xmlns="http://www.w3.org/2000/svg">
<path id="Vector" d="M6.99574 0.0116085C7.20218 -0.00509224 7.47183 0.00115139 7.68217 0.00110559L8.75335 0.001472L12.1557 0.00159429L18.5256 0.00160943C19.5865 0.00160943 20.6479 0.00211314 21.7088 0.00173149C22.7095 0.00136511 23.6492 0.391435 24.3503 1.1332C24.9172 1.73229 25.27 2.51004 25.3513 3.34029C25.3785 3.63401 25.3701 3.99957 25.3704 4.29859C25.3722 4.71887 25.3713 5.13915 25.368 5.55942C25.7554 5.57268 26.1696 5.57052 26.557 5.56794C27.2493 5.56011 27.8249 5.52899 28.3781 6.03296C29.0366 6.63284 28.9965 7.23534 28.9972 8.05402L28.9977 9.27673L28.9974 10.0522C28.9972 10.3483 29.0358 10.6857 28.8227 10.9169C28.6345 11.1212 28.4321 11.1475 28.1777 11.157C27.793 11.1863 27.2671 11.0869 27.2067 10.6075C27.1675 10.2957 27.1863 9.88055 27.1864 9.55643L27.1891 7.43884C26.5816 7.42976 25.9707 7.44613 25.3691 7.43747C25.37 7.4535 25.3706 7.46954 25.3709 7.48559C25.3789 7.86505 25.3695 8.28545 25.3695 8.66877V11.1531L25.3697 18.6848L25.37 23.1524V24.5756C25.37 24.9472 25.4452 25.5124 25.1774 25.786C24.996 25.9713 24.812 25.9958 24.5691 25.9967C24.0935 25.9985 23.6181 25.9984 23.1425 25.9984C22.9446 25.9973 22.4477 26.0107 22.2755 25.9755C22.1489 25.95 22.0325 25.8861 21.9415 25.7923C21.7137 25.556 21.7423 25.2108 21.7441 24.9018C21.7451 24.7282 21.7453 24.5545 21.7442 24.3809L21.7409 24.1498C21.4777 24.1628 21.0587 24.1478 20.7859 24.1474L18.8538 24.1468L12.7988 24.1466L8.94383 24.1468L7.89556 24.1478C7.7156 24.1494 7.42319 24.1639 7.25677 24.144C7.23932 24.4544 7.28011 25.2517 7.22092 25.4836C7.19372 25.5926 7.14018 25.6929 7.06523 25.7753C6.88567 25.9716 6.70704 25.9951 6.459 25.9962C5.83402 25.9987 5.20495 25.9988 4.5804 25.9982C4.28625 25.9994 4.03155 26.0129 3.80927 25.7781C3.55728 25.512 3.62357 24.9722 3.62363 24.6134L3.62441 23.3739L3.62439 19.5426L3.6248 7.43874C3.24578 7.43422 2.86674 7.43271 2.4877 7.43419C2.26881 7.43509 2.02986 7.445 1.81405 7.43411C1.80536 8.15745 1.82258 8.88478 1.81317 9.60734C1.80821 9.98935 1.89616 10.6568 1.62376 10.9355C1.32544 11.2409 0.480828 11.2521 0.179201 10.9271C0.0922774 10.8334 0.0429837 10.7528 0.0286196 10.623C-0.012179 10.2718 0.0026367 9.90327 0.00256367 9.54831L0.00344892 7.61034C0.00719122 6.83492 0.2185 6.24567 0.893964 5.82439C1.3893 5.51545 1.9264 5.56696 2.48035 5.56739L3.62618 5.57113C3.60806 5.24288 3.62702 4.81715 3.62362 4.47694C3.615 3.61438 3.59916 2.96402 3.96439 2.15452C4.10685 1.83692 4.29301 1.54185 4.51716 1.27831C5.14598 0.535193 6.03794 0.0793272 6.99574 0.0116085ZM15.4099 5.57653C15.3862 6.37609 15.4047 7.27817 15.4048 8.08732L15.4051 12.4562C15.4051 13.2461 15.4141 14.0566 15.402 14.8441C17.0405 14.8768 18.7552 14.8503 20.3993 14.8503L21.969 14.8515C22.4344 14.8518 22.9349 14.936 23.2902 14.5733C23.4337 14.414 23.5212 14.276 23.5443 14.0526C23.5766 13.7421 23.5628 13.3916 23.5626 13.0767L23.5625 11.3276L23.5629 8.20302C23.5631 7.65969 23.5653 7.11651 23.5604 6.57291C23.5575 6.26779 23.4863 6.03296 23.2663 5.81891C22.9589 5.51958 22.5027 5.58125 22.107 5.5825L21.0038 5.5843L16.8789 5.58325L15.9454 5.58592C15.7923 5.58708 15.5507 5.60218 15.4099 5.57653ZM12.529 14.8506C12.8726 14.8504 13.2549 14.8419 13.5953 14.8515L13.5954 8.66235L13.5955 6.66301C13.5955 6.32674 13.6072 5.91543 13.5917 5.58685C13.1038 5.59471 12.5908 5.58391 12.0997 5.58377L8.39583 5.58343C7.75843 5.58343 7.09704 5.57403 6.46122 5.58462C6.13677 5.59844 5.92785 5.60512 5.67674 5.87331C5.56431 5.99339 5.45956 6.21452 5.45 6.37821C5.43116 6.70102 5.43879 7.05421 5.43879 7.379L5.43912 9.39252L5.43907 12.3955C5.43856 12.9123 5.43397 13.4392 5.4425 13.9558C5.44684 14.2179 5.56291 14.4514 5.75631 14.6248C5.88327 14.7409 6.04147 14.8151 6.21026 14.8377C6.3866 14.862 6.73676 14.8518 6.92885 14.8513L8.17677 14.8507L12.529 14.8506ZM18.9482 3.71387C19.2455 3.70239 19.4792 3.64388 19.6914 3.4109C19.855 3.22799 19.9404 2.98571 19.9288 2.73792C19.917 2.49179 19.8094 2.26077 19.6298 2.09662C19.4999 1.97739 19.337 1.90218 19.1637 1.88122C18.9371 1.85511 18.3134 1.87078 18.0601 1.87078L15.849 1.87101L12.0745 1.87119C11.4232 1.87107 10.6864 1.85391 10.04 1.87607C9.86359 1.87952 9.72018 1.87951 9.55755 1.96558C9.24426 2.13138 9.05913 2.45141 9.06789 2.81249C9.07497 3.0653 9.18248 3.3042 9.36554 3.47391C9.52931 3.62537 9.70339 3.69205 9.92079 3.70431C10.2462 3.72265 10.5961 3.71463 10.9232 3.71462L12.8719 3.71457L18.9482 3.71387ZM8.29755 19.7768C8.52758 19.7712 8.6863 19.7484 8.86405 19.57C9.08506 19.3481 9.07206 19.041 9.06998 18.7485C9.06823 18.5039 9.02358 18.2661 8.83748 18.0935C8.76526 18.0264 8.65871 17.964 8.56084 17.9533C8.25412 17.9194 7.88264 17.9257 7.57102 17.9304C7.13938 17.9368 6.67149 17.9171 6.24704 17.9344C6.00785 17.9382 5.82256 17.9316 5.63052 18.1237C5.39145 18.3626 5.44099 18.7216 5.43848 19.0314C5.43682 19.2359 5.49773 19.4509 5.64653 19.5922C5.733 19.6745 5.85917 19.7379 5.97673 19.7547C6.24904 19.7937 6.57771 19.7786 6.85457 19.778L8.29755 19.7768ZM22.8167 19.7767C23.5076 19.7544 23.5987 19.2558 23.564 18.6717C23.5437 18.3289 23.4051 18.0016 23.0259 17.9484C22.728 17.9068 22.4232 17.9429 22.1238 17.9303C21.6514 17.9367 21.1725 17.9182 20.702 17.9356C20.468 17.9399 20.305 17.9443 20.1257 18.127C19.8904 18.3647 19.9369 18.7229 19.934 19.0271C19.9309 19.3781 20.1193 19.7044 20.4786 19.7553C20.7549 19.7944 21.0603 19.7785 21.34 19.7783L22.8167 19.7767Z" fill="var(--fill-0, #6E1603)"/>
</svg>
