<svg preserveAspectRatio="none" width="100%" height="100%" overflow="visible" style="display: block;" viewBox="0 0 29 29" fill="none" xmlns="http://www.w3.org/2000/svg">
<g id="Frame 2085665812">
<path id="Vector" d="M15.7262 0H18.3715C18.5951 0.0427165 18.8986 0.0277722 19.1299 0.0364165C19.5272 0.0564169 19.9314 0.0494092 20.3279 0.0840718C22.9885 0.316638 26.3731 0.62959 28.1116 2.97795C28.923 4.07399 28.9998 5.37736 28.9999 6.68502L28.9998 8.15025L28.9995 13.2424V18.4108L28.9997 19.8777C28.9999 20.446 29.009 20.9763 28.9146 21.5355C28.5637 23.6166 26.962 25.3276 24.9449 25.808C24.5216 25.9088 24.178 25.9374 23.744 25.9459C23.9284 26.1193 24.1137 26.3186 24.2921 26.5004L25.2354 27.4597C25.358 27.5841 25.7672 27.9657 25.8387 28.0799C25.8463 28.1512 25.8639 28.164 25.9177 28.2174C25.9334 28.4225 25.9284 28.7434 25.9198 28.9524C25.8273 28.9667 25.6527 28.9587 25.5497 28.9592C24.716 28.965 23.8816 28.9575 23.0481 28.9589C23.0425 28.9589 23.0108 28.9832 22.9852 28.9884L20.8734 26.8387L20.3078 26.2609C20.2459 26.1977 20.0662 26.0077 20.0008 25.9612C19.769 25.9413 19.4562 25.9496 19.2175 25.9496L17.9271 25.9503C16.7402 25.951 15.5285 25.9367 14.3437 25.9536C14.0945 26.1959 13.8456 26.4478 13.6042 26.6983C12.8597 27.4711 12.0861 28.2225 11.347 29H8.00565C7.99565 28.7662 7.9942 28.4725 8.00995 28.2402C8.09114 28.1317 8.26526 27.964 8.36533 27.8624L8.96641 27.2514L9.76392 26.4398C9.90791 26.2933 10.1044 26.0822 10.2565 25.9525C10.0529 25.9332 9.84996 25.9363 9.64122 25.9108C8.78896 25.8084 7.97446 25.4945 7.26936 24.9966C6.12234 24.1898 5.33805 22.9515 5.08965 21.555C4.9882 20.9583 5.00044 20.4519 5.00048 19.8532L5.00057 18.3483L5.00076 13.0158L5.00078 8.12338L5.00032 6.7231C5.0003 6.199 4.99368 5.7693 5.06224 5.24765C5.15659 4.48109 5.43416 3.74975 5.87067 3.11771C7.68572 0.51782 12.0972 0.166075 14.9768 0.0374014C15.2149 0.0267621 15.4949 0.0451168 15.7262 0ZM8.00013 6.11293L7.99939 12.2006C8.8879 12.224 9.82788 12.2082 10.7199 12.2082L15.498 12.2074C15.5268 10.1907 15.493 8.13621 15.5017 6.11509L10.2733 6.11059L8.73763 6.11103C8.52181 6.11138 8.20246 6.12541 8.00013 6.11293ZM18.5033 12.2035C20.1487 12.2239 21.8222 12.2081 23.4695 12.2079L25.1459 12.208C25.352 12.2081 25.805 12.221 25.9951 12.2041L25.9995 6.11591C24.1954 6.09177 22.3552 6.10984 20.5484 6.11043L19.1551 6.11154C19.0202 6.11175 18.6143 6.12301 18.5102 6.10439C18.4913 6.27959 18.5015 6.62115 18.5018 6.81072L18.5031 8.08263L18.5033 12.2035ZM10.4553 22.8771C11.6884 22.7625 12.5965 21.6517 12.4831 20.3967C12.3698 19.1418 11.2779 18.2182 10.0449 18.3341C8.81282 18.4501 7.90613 19.5603 8.0194 20.8143C8.13267 22.0683 9.22304 22.9917 10.4553 22.8771ZM23.9512 22.8771C25.185 22.763 26.0938 21.6517 25.9802 20.3961C25.8664 19.1406 24.7732 18.217 23.5396 18.3344C22.3084 18.4517 21.4031 19.5617 21.5166 20.815C21.6302 22.0682 22.7196 22.991 23.9512 22.8771Z" fill="var(--fill-0, #6E1603)"/>
</g>
</svg>
