<svg preserveAspectRatio="none" width="100%" height="100%" overflow="visible" style="display: block;" viewBox="0 0 29 22.3248" fill="none" xmlns="http://www.w3.org/2000/svg">
<g id="Group 2085665564">
<path id="Vector" d="M11.0708 0.00690171C11.4364 -0.00487954 11.8444 0.00323424 12.2128 0.00314928C12.8006 0.00126597 13.3884 0.0023847 13.9762 0.00654779C13.9557 0.183677 13.9546 0.478067 13.9476 0.669795L13.9 1.84667C14.2378 1.84033 14.7637 1.84312 15.0943 1.8578L15.0261 0.0080769C15.7734 -0.0122146 16.5309 0.0134155 17.2792 0.00300775C17.497 -2.25215e-05 17.7343 -0.00175021 17.9506 0.0127215L22.0502 15.5803L23.2778 20.2414L23.6322 21.5915C23.6786 21.7692 23.7714 22.1658 23.831 22.3148L18.0471 22.3159C17.3441 22.3156 16.6219 22.3073 15.9204 22.3179C15.9095 21.7128 15.8699 21.0834 15.852 20.4741C15.2508 20.4629 14.6494 20.4598 14.0481 20.4647C13.8551 20.4652 13.3187 20.4833 13.1561 20.4643C13.1136 21.0328 13.0985 21.7423 13.0805 22.3159L7.81761 22.316C6.95914 22.3159 6.02678 22.2968 5.17428 22.3177C5.23031 22.1549 5.30203 21.8388 5.34896 21.6603L5.69865 20.3315L6.79582 16.1639L10.2164 3.17369C10.3113 2.8132 10.9967 0.102015 11.0708 0.00690171ZM13.2593 17.684C14.0186 17.6891 14.778 17.6903 15.5372 17.6878L15.7396 17.6896C15.7077 17.2246 15.7015 16.7457 15.6813 16.2787L15.5271 12.5579L14.1534 12.5584C14.0048 12.5584 13.6003 12.572 13.4842 12.5437C13.4526 12.7371 13.4508 12.9609 13.4437 13.1594C13.4339 13.4584 13.4225 13.7576 13.4096 14.0567C13.3567 15.262 13.3234 16.4806 13.2593 17.684ZM13.7873 4.6401L13.6562 7.89744C13.6343 8.48739 13.6223 9.18261 13.5815 9.76407C14.0222 9.76947 14.4629 9.77104 14.9036 9.76876C15.0599 9.76866 15.2644 9.76304 15.4167 9.77091L15.2664 6.01469C15.2453 5.57756 15.2468 5.06985 15.2059 4.64163C14.8486 4.63613 14.4619 4.62637 14.1052 4.63675C14.0011 4.64029 13.8908 4.64636 13.7873 4.6401Z" fill="var(--fill-0, #6E1603)"/>
<path id="Vector_2" d="M18.8659 0.0113293C19.1019 0.0015588 19.6467 -0.00703646 19.8683 0.0180978L27.0829 17.6312L28.5561 21.2236C28.6147 21.3661 28.9421 22.2112 29 22.2787V22.3111C28.6909 22.3273 28.303 22.3171 27.9863 22.3174L26.3005 22.3151C26.2089 21.9617 26.0226 21.4532 25.9032 21.0953L25.161 18.8715L22.8562 11.9649L20.1751 3.9299L19.3075 1.3291C19.1758 0.934543 19.0124 0.384364 18.8659 0.0113293Z" fill="var(--fill-0, #6E1603)"/>
<path id="Vector_3" d="M9.13919 0.010127C9.42558 -0.00692181 9.84046 0.00106454 10.1303 0.00869687C9.89976 0.673445 9.67892 1.36306 9.45564 2.03176L8.04743 6.25092L2.68843 22.313C1.83435 22.3346 0.858426 22.3211 1.46249e-06 22.3126V22.279C0.059332 22.2072 0.354647 21.4358 0.415262 21.2879L1.6479 18.2844L6.67409 6.01308L8.30471 2.03293L8.83047 0.748721C8.92468 0.518363 9.03415 0.229043 9.13919 0.010127Z" fill="var(--fill-0, #6E1603)"/>
</g>
</svg>
