<svg preserveAspectRatio="none" width="100%" height="100%" overflow="visible" style="display: block;" viewBox="0 0 24 21" fill="none" xmlns="http://www.w3.org/2000/svg">
<g id="Group 2085665566">
<path id="Vector" d="M7.00451 3.21431C6.99456 3.08621 7.00205 2.90749 7.00291 2.77411L7.00336 2.07404L7.00332 1.22336C7.00343 0.891092 6.96002 0.521821 7.21018 0.25798C7.37184 0.0874654 7.58085 0.00882177 7.81536 0.00717262C8.03392 0.00204194 8.24372 0.00385138 8.4598 0.00406898L9.57111 0.00434386L13.0155 0.00458431L15.1753 0.00449275C15.429 0.00425225 16.0699 -0.0110368 16.2961 0.016197C16.4599 0.0353226 16.6137 0.103338 16.7365 0.210968C16.9123 0.365369 16.9905 0.56968 16.9927 0.798087C16.999 1.49833 16.9937 2.19894 16.9955 2.89927C16.9957 3.00225 16.9966 3.10465 16.9909 3.20749C17.34 3.21102 17.767 3.19253 18.1057 3.23786C18.9021 3.34444 19.7036 3.87511 20.1117 4.55004C20.2859 4.84388 20.4369 5.25236 20.5713 5.57312L21.1518 6.95536C21.2579 7.20792 21.3688 7.488 21.4833 7.73395C21.7229 7.67182 21.9621 7.60807 22.2008 7.54273C22.6359 7.42489 23.0713 7.27666 23.4948 7.51714C23.6946 7.62847 23.8463 7.80705 23.9213 8.01956C23.9387 8.06955 23.9794 8.20761 24 8.24651V9.22165C23.9737 9.30435 23.9384 9.44924 23.9104 9.51828C23.7887 9.81313 23.5641 10.0562 23.2762 10.2043C23.0827 10.3035 22.7979 10.3709 22.5796 10.3525C23.0629 11.4963 23.3537 12.701 23.3745 13.9444C23.3784 14.1787 23.3747 14.4155 23.3747 14.6501V16.5064L23.3743 18.64C23.3742 19.0691 23.4267 19.8287 23.2661 20.2015C23.1257 20.5206 22.8615 20.7722 22.5314 20.9011C22.4275 20.9418 22.3184 20.9688 22.207 20.9814C21.953 21.009 21.4937 20.9941 21.2291 20.9956C20.9791 20.997 20.5302 21.0074 20.2977 20.9781C20.1745 20.9632 20.0541 20.9311 19.9402 20.883C19.6195 20.7485 19.367 20.4948 19.2383 20.1779C19.1106 19.8548 19.1401 19.428 19.1404 19.0781L19.1408 18.2724C18.0227 18.2849 16.883 18.273 15.7625 18.273L9.16005 18.2729H6.1177L5.27037 18.2742C5.14999 18.2747 4.95416 18.286 4.84312 18.2708C4.8305 18.5961 4.84541 18.9299 4.83954 19.2504C4.83461 19.5197 4.86408 19.8205 4.77984 20.0721C4.55471 20.7447 3.96334 21.0375 3.26978 20.9951C2.96201 20.9764 2.6107 21.0114 2.29849 20.9959C1.75143 21.005 1.33969 20.977 0.949169 20.5593C0.781125 20.3815 0.670695 20.1591 0.631807 19.9202C0.595986 19.7001 0.608251 19.2734 0.608345 19.0362L0.608655 17.5764L0.608512 15.0891C0.60851 14.6537 0.600448 14.1897 0.614509 13.7556C0.639943 12.9704 0.797012 12.1535 1.01298 11.398C1.11441 11.0432 1.26886 10.6947 1.40133 10.3535C0.829915 10.3707 0.255198 10.0287 0.0776435 9.4778C0.0586339 9.41882 0.0264829 9.29842 0 9.24838V8.23001C0.0482445 8.14323 0.0656057 8.03453 0.108229 7.94674C0.445102 7.25301 1.13626 7.33189 1.77015 7.53596C1.97679 7.60247 2.29791 7.68407 2.51016 7.73305C2.56499 7.56964 2.65864 7.36378 2.7267 7.2022L3.10298 6.30713L3.49058 5.38369C3.63425 5.04078 3.78013 4.64952 4.00207 4.35189C4.2759 3.98829 4.63496 3.69416 5.04913 3.49418C5.70715 3.17006 6.28958 3.19648 7.00451 3.21431ZM17.3145 10.5824L19.1091 10.5819C19.4194 10.582 19.785 10.6024 20.0877 10.5583C20.5205 10.4952 20.7144 10.0639 20.5608 9.68694C20.4482 9.38909 20.3212 9.10002 20.1983 8.80742L19.5421 7.24482L18.9635 5.86839C18.8549 5.60997 18.7468 5.32902 18.6213 5.07946C18.4021 4.64384 17.8777 4.29903 17.3882 4.23601C17.2323 4.21593 17.0541 4.22027 16.8969 4.22014L16.2183 4.22019L13.896 4.22033L9.21961 4.22029C8.43811 4.22029 7.58702 4.20263 6.81282 4.22209C6.76915 4.22282 6.72548 4.2244 6.68186 4.22683C5.48884 4.39803 5.32093 5.14039 4.92486 6.08651L4.21827 7.76982L3.70157 8.99962C3.61092 9.21534 3.5128 9.43283 3.43181 9.65104C3.25087 10.1387 3.48533 10.5477 4.03489 10.5759C4.22289 10.5855 4.4111 10.583 4.59973 10.583L5.49562 10.5825L8.32015 10.5824H17.3145ZM20.3982 15.878C20.666 15.8365 20.8741 15.6984 20.8968 15.4174C20.9317 14.9827 20.9014 14.5382 20.9113 14.1021C20.9713 13.0823 20.5151 13.1983 19.699 13.1987H18.5789H17.4448C17.2438 13.1987 16.9788 13.192 16.7823 13.2056C16.6351 13.231 16.463 13.2789 16.3809 13.4237C16.2054 13.7336 16.2973 14.238 16.2803 14.5849C16.2657 14.8833 16.2718 15.1621 16.2977 15.4519C16.3881 15.9559 16.9275 15.883 17.3061 15.8823L18.1788 15.8808L19.6045 15.8811C19.8601 15.8812 20.1446 15.8869 20.3982 15.878ZM7.15698 15.8775C7.42095 15.8358 7.62327 15.7014 7.65262 15.4176C7.68103 15.143 7.65689 14.8599 7.66548 14.584C7.66181 14.2641 7.68241 13.9113 7.64416 13.5969C7.62933 13.4749 7.52132 13.3515 7.41971 13.2844C7.33215 13.2265 7.21534 13.2096 7.10817 13.2045C6.90042 13.1946 6.67883 13.1987 6.46968 13.1986L5.31642 13.1983L4.18618 13.1986C4 13.1987 3.72299 13.1911 3.54067 13.2051C3.38996 13.2302 3.22182 13.2769 3.13697 13.4234C2.97062 13.7106 3.0497 14.1833 3.03776 14.509C3.02578 14.8356 3.02528 15.1464 3.05685 15.4642C3.14513 15.9591 3.70855 15.8832 4.07872 15.8823L4.96555 15.8807L6.35768 15.8811C6.61552 15.8812 6.90108 15.8868 7.15698 15.8775ZM7.85941 1.43816C8.12408 1.45537 8.39645 1.43602 8.64825 1.45284C8.67776 1.94275 8.64259 2.45609 8.65615 2.94777C8.65845 3.0311 8.65744 3.1244 8.6535 3.20765C8.87752 3.21142 9.10158 3.21231 9.32562 3.21032C9.32967 2.95794 9.33095 2.70553 9.32944 2.45313L9.32895 1.81956C9.32896 1.71148 9.32459 1.55353 9.33568 1.45027C9.58028 1.44737 9.88898 1.45557 10.1275 1.44318C10.1297 1.30667 10.1356 1.15326 10.1287 1.01818C9.39707 0.98885 8.60436 1.02369 7.86759 1.01481C7.85053 1.13436 7.8568 1.31348 7.85941 1.43816ZM10.5346 3.21109C10.5819 3.08804 10.6727 2.82396 10.727 2.72051C10.8407 2.7085 11.498 2.68887 11.6093 2.74164C11.6451 2.75861 11.7573 3.12321 11.7776 3.20111C11.9954 3.21978 12.2823 3.21423 12.5068 3.21341C12.7065 3.21268 12.964 3.21953 13.1596 3.20996C13.3236 2.96914 13.473 2.71719 13.6384 2.47969C13.7911 2.67151 13.9623 2.98974 14.115 3.20295C14.2723 3.21699 14.6987 3.2194 14.8577 3.2101C14.6406 2.97025 14.4398 2.70413 14.2307 2.45715C14.0074 2.19365 13.972 2.22635 14.1694 1.95146C14.3712 1.64822 14.6116 1.31993 14.801 1.01492C14.5867 1.01203 14.2748 1.00243 14.0685 1.02013C13.9126 1.23234 13.7898 1.46732 13.6429 1.67693C13.5408 1.55858 13.4476 1.37688 13.3607 1.24443C13.2877 1.13334 13.27 1.01865 13.1017 1.01323C12.8929 1.00652 12.6844 1.0138 12.4759 1.01402C12.5675 1.14288 13.2184 2.08286 13.2435 2.18111C13.2069 2.29106 12.551 3.05813 12.4373 3.18535C12.4068 3.04893 12.3179 2.84855 12.2623 2.71224L11.9736 2.00646L11.707 1.34993C11.6716 1.26278 11.609 1.09472 11.5694 1.01817C11.3166 1.00497 11.0365 1.01204 10.7834 1.01756C10.7147 1.11386 10.5757 1.49142 10.518 1.62214C10.2923 2.13323 10.092 2.70633 9.86231 3.21198C10.0864 3.21336 10.3105 3.21307 10.5346 3.21109ZM15.8536 3.21386C15.8681 2.50238 15.8645 1.73134 15.8569 1.0177C15.6314 1.00997 15.4133 1.02163 15.1938 1.0145C15.1766 1.22761 15.1871 1.56319 15.1873 1.78416L15.1882 3.20842C15.41 3.20913 15.6318 3.21094 15.8536 3.21386Z" fill="var(--fill-0, #6E1603)"/>
<path id="Vector_2" d="M16.3222 2.46875L16.3533 2.48363C16.4251 2.63482 16.6948 3.22011 16.7158 3.35742C16.6473 3.42321 16.4583 3.40496 16.3582 3.40479C16.2041 3.40344 16.0438 3.3957 15.8883 3.39315C16.035 3.08318 16.1626 2.7741 16.3222 2.46875Z" fill="var(--fill-0, #6E1603)"/>
</g>
</svg>
