<svg preserveAspectRatio="none" width="100%" height="100%" overflow="visible" style="display: block;" viewBox="0 0 29 22.1014" fill="none" xmlns="http://www.w3.org/2000/svg">
<g id="Group 2085665565">
<path id="Vector" d="M0 3.79325C0.0610694 3.67595 0.0817561 3.40486 0.116124 3.26448C0.151202 3.12121 0.182638 3.0075 0.231871 2.86783C0.643112 1.67585 1.56294 0.728368 2.74221 0.282012C3.11746 0.139716 3.51122 0.0521923 3.91142 0.0221161C4.19912 0.00100333 4.51423 0.00737542 4.8044 0.00753118L6.10393 0.00767271L10.2048 0.00774358L16.9507 0.00757353C18.1158 0.00758769 19.3439 -0.0120665 20.505 0.0118925L20.5043 10.2008L24.7221 10.2035L25.8787 10.2028C26.2541 10.2026 26.6435 10.1858 27.0126 10.2669C27.8976 10.4615 28.6403 11.1527 28.8917 12.0241C28.9244 12.1375 28.9561 12.3627 29 12.4622V14.9296C28.0993 14.1079 26.9321 13.6391 25.7133 13.6096C24.3654 13.5771 23.06 14.082 22.0849 15.013C21.0369 16.013 20.5356 17.2669 20.5029 18.7022C19.3544 18.7189 18.1665 18.7043 17.0151 18.7043L8.49435 18.7045C8.50247 18.2988 8.36018 17.3728 8.1764 17.0088C8.40969 16.9928 8.7116 17.0001 8.94915 17L10.2496 16.9993C10.2624 16 10.2525 14.9806 10.2525 13.9796L10.2521 7.11205C10.2521 5.88745 10.2396 4.63918 10.2552 3.41607C8.65446 3.39505 7.01933 3.41165 5.41592 3.41151L4.1393 3.41209C3.9487 3.41291 3.57705 3.42659 3.39967 3.4051L3.39913 8.50674C2.7049 8.51896 1.98804 8.50619 1.29155 8.50848C0.909932 8.50973 0.36407 8.52778 0 8.50818V3.79325ZM11.9516 11.9001C13.0682 11.9063 14.2424 11.8795 15.3507 11.9065L15.3503 13.6044L13.0076 13.6065C12.8168 13.6067 12.0993 13.6224 11.9524 13.6004L11.9516 16.9977L13.6716 17C14.366 17.0014 15.0113 17.0554 15.6451 16.7218C16.5221 16.2601 17.0442 15.4146 17.0478 14.4233C17.0488 14.144 17.0493 13.8553 17.0493 13.5718L17.0494 11.5764L17.0491 6.22214C17.0491 5.30306 17.033 4.33176 17.0521 3.41607C15.8584 3.40168 14.6497 3.41046 13.4549 3.41109L12.4867 3.41298C12.3465 3.41349 12.0812 3.42448 11.9544 3.40417C11.9102 6.22983 11.9811 9.07245 11.9516 11.9001Z" fill="var(--fill-0, #6E1603)"/>
<path id="Vector_2" d="M22.2187 0.455539C22.2998 0.503556 22.5155 0.672798 22.5958 0.735301C23.2641 1.26241 23.8771 1.85613 24.4253 2.50727C25.6605 3.98123 26.5296 5.7264 26.9616 7.60031C26.9958 7.7473 27.1377 8.38803 27.1275 8.5029C26.5841 8.51907 25.9878 8.50811 25.4404 8.50818L22.2016 8.50825C22.22 7.83918 22.2035 7.08357 22.2035 6.40937L22.204 2.30058L22.2027 1.07941C22.2027 0.964299 22.1946 0.539749 22.2187 0.455539Z" fill="var(--fill-0, #6E1603)"/>
<path id="Vector_3" d="M0 18.3052C0.0470668 18.2104 0.075604 18.0107 0.100114 17.8983C0.127764 17.7741 0.162898 17.6517 0.205322 17.5318C0.519048 16.6415 1.24344 15.9025 2.11837 15.5514C2.9617 15.21 3.90653 15.2203 4.74225 15.5798C5.57269 15.9381 6.22612 16.6125 6.55795 17.4539C6.89101 18.2947 6.87321 19.234 6.50855 20.0615C6.13722 20.9038 5.44301 21.5612 4.58199 21.8863C3.74518 22.2007 2.81764 22.1688 2.00437 21.798C1.17114 21.4217 0.523344 20.7275 0.205767 19.8702C0.162234 19.7559 0.12737 19.6387 0.101472 19.5192C0.0806228 19.4215 0.0370284 19.1577 0 19.0815V18.3052ZM2.5493 19.5466C2.67978 19.5472 4.20933 19.5643 4.24428 19.5311C4.25545 18.9757 4.23734 18.4111 4.25133 17.8595C3.88072 17.8549 3.51006 17.8538 3.13943 17.8563C2.99323 17.8568 2.6806 17.8682 2.55206 17.8476C2.54282 18.4138 2.55536 18.9814 2.5493 19.5466Z" fill="var(--fill-0, #6E1603)"/>
<path id="Vector_4" d="M29 19.0513C28.9554 19.1747 28.9317 19.3693 28.9014 19.5031C28.8551 19.7081 28.7886 19.8912 28.7019 20.0832C28.3257 20.921 27.6292 21.5728 26.7682 21.8928C25.9315 22.2016 25.0061 22.1655 24.196 21.7924C23.3645 21.4142 22.7198 20.718 22.4063 19.8601C22.0982 19.0038 22.1442 18.06 22.5343 17.2379C22.9198 16.4192 23.6191 15.7905 24.4741 15.4941C25.33 15.1942 26.2703 15.2481 27.0863 15.6442C27.9016 16.0419 28.5249 16.748 28.8187 17.6062C28.8996 17.8491 28.9216 18.1427 29 18.3536V19.0513ZM24.7524 19.5466C24.8829 19.5471 26.4124 19.5643 26.4475 19.531C26.4585 18.9756 26.4406 18.4112 26.4544 17.8594C26.0887 17.8549 25.7228 17.8537 25.3569 17.8563C25.2096 17.8567 24.8841 17.8682 24.7552 17.8476C24.746 18.4138 24.7585 18.9813 24.7524 19.5466Z" fill="var(--fill-0, #6E1603)"/>
<path id="Vector_5" d="M2.52404e-05 10.2012L2.88347 10.2028L3.76881 10.2024C4.13716 10.2021 4.49579 10.1896 4.85728 10.2775C5.31378 10.3914 5.7303 10.6283 6.06156 10.9624C6.79894 11.7102 6.81767 12.4872 6.7985 13.4597C6.79034 13.8732 6.80156 14.3143 6.79646 14.7316C6.79553 14.799 6.79388 14.8662 6.79153 14.9336C6.6746 14.8024 6.42653 14.6201 6.27884 14.5178C5.51189 13.9859 4.58814 13.6472 3.64813 13.6153C2.18572 13.5656 1.09188 14.006 2.52404e-05 14.9242V10.2012Z" fill="var(--fill-0, #6E1603)"/>
</g>
</svg>
