<svg preserveAspectRatio="none" width="100%" height="100%" overflow="visible" style="display: block;" viewBox="0 0 29 30" fill="none" xmlns="http://www.w3.org/2000/svg">
<path id="Vector" d="M14.2516 0H14.7335C14.8814 0.0471539 15.0407 0.0572537 15.1882 0.10667C15.7694 0.30149 16.224 0.667239 16.5151 1.198C16.8331 1.77754 16.7884 2.36249 16.7882 2.99814L16.7876 4.43771L16.7875 8.43974C16.7876 9.08922 16.7681 9.85481 16.7896 10.4958C17.1577 10.737 17.5628 10.9761 17.9411 11.2083L19.884 12.4021L25.6641 15.9542L27.8482 17.296C28.1513 17.482 28.7117 17.8031 28.9872 18.0048C28.9991 18.959 29.0101 20.0495 28.9839 20.9999C28.6815 20.8942 28.2957 20.7889 27.984 20.6933L25.9609 20.072L19.795 18.1774L17.7462 17.5475C17.5008 17.4722 17.0096 17.3386 16.786 17.2523C16.7964 17.4877 16.7876 17.7656 16.7875 18.0048L16.7873 19.3929V23.6805V24.8692C16.7875 25.0573 16.7803 25.3137 16.7896 25.4981C17.4885 26.0322 18.2212 26.5434 18.9228 27.0735C19.1719 27.2619 19.6097 27.5563 19.8308 27.7468C19.8448 27.9971 19.839 28.2768 19.8388 28.5293L19.8342 30H19.7783C19.6888 29.9395 18.8188 29.717 18.66 29.6725L16.444 29.0499L15.2467 28.7134C15.0093 28.6466 14.7625 28.5702 14.5195 28.5268C14.4753 28.519 14.4181 28.5306 14.374 28.5425C13.96 28.6534 13.5467 28.7719 13.1341 28.8877L10.9348 29.5061L9.74814 29.8399C9.63738 29.8704 9.2776 29.9502 9.20951 30H9.15873C9.17138 29.8887 9.15483 29.569 9.15832 29.4374C9.17263 28.8943 9.13227 28.2855 9.16587 27.7499C9.27772 27.6407 9.71457 27.3321 9.86254 27.2231C10.4405 26.8012 11.0159 26.3758 11.5887 25.9471C11.7608 25.8167 12.0171 25.6551 12.1692 25.5183C12.2457 25.3093 12.2063 23.2148 12.2063 22.8606L12.2057 17.2616C11.6665 17.3968 10.9262 17.648 10.3848 17.8143L6.89102 18.8881L2.2665 20.3092C1.54564 20.5308 0.713892 20.763 0.00859931 21.0022C0.0118026 20.665 -0.022385 18.0776 0.0268224 17.9982C0.0703414 17.9282 9.05722 12.4306 10.0062 11.8475L11.6035 10.8665C11.7576 10.7722 12.0232 10.6154 12.163 10.5197C12.2264 10.4762 12.2063 9.71278 12.2063 9.62222L12.2064 8.3023L12.2062 4.19342L12.206 2.98948C12.2059 2.62071 12.1938 2.23859 12.2509 1.87586C12.377 1.08876 12.9518 0.399426 13.719 0.136167C13.8916 0.0769472 14.0729 0.0568364 14.2393 0.0040171L14.2516 0Z" fill="var(--fill-0, #6E1603)"/>
</svg>
