<svg preserveAspectRatio="none" width="100%" height="100%" overflow="visible" style="display: block;" viewBox="0 0 67.8896 52.1668" fill="none" xmlns="http://www.w3.org/2000/svg">
<g id="Group 2085665670">
<path id="Vector" d="M24.8043 0C25.8949 0.0846828 27.856 0.0293127 28.9876 0.0281727L38.1921 0.0164477C39.7542 0.0158777 41.9523 -0.0416905 43.4488 0.0778425C44.6931 0.895438 44.9829 2.08759 45.5972 3.3663C46.5557 5.36075 47.2835 7.56543 48.4761 9.43464C49.3486 4.1716 50.9708 5.35977 55.4298 5.21947C59.6944 5.08536 59.9854 5.83367 60.0002 9.83077C61.8612 9.76832 64.7829 9.60042 66.3304 10.7962C67.0794 11.3751 67.7486 12.8389 67.7966 13.7828C67.8938 15.6984 67.869 17.6411 67.8703 19.5649L67.8621 30.4904L67.8733 42.7396C67.8735 44.9166 67.9373 47.1114 67.8103 49.2819C67.723 50.7748 66.5455 51.8572 65.0888 52.0133C63.2355 52.2119 61.2987 52.1395 59.428 52.1402L48.6564 52.1413C47.1246 52.1431 44.8935 52.0579 43.4477 52.1572C43.2189 52.111 40.9619 52.1337 40.6438 52.1343L33.3916 52.1532L12.9075 52.1307C9.89399 52.1284 6.88205 52.1363 3.86864 52.1651C2.63032 52.1866 2.00749 52.017 1.12419 51.13C-0.329099 49.6707 0.0423656 46.856 0.0428542 44.8805L0.0672822 37.091L0.0689104 22.1743C0.0667933 19.867 0.0973283 17.4089 0.054824 15.1133C-0.0474467 9.58169 4.02229 9.77085 8.23608 9.87776C7.87047 5.81803 8.2833 5.07657 12.5277 5.22306C14.0075 5.27419 15.5565 5.1593 17.0619 5.27134C19.0945 5.42271 19.321 7.53017 19.7884 9.11488C21.6663 7.23158 22.978 1.61386 24.8043 0ZM26.1309 2.59895C24.5843 5.57547 23.3178 8.69309 21.7469 11.6441C21.2763 12.5281 19.4981 12.3165 18.6207 12.3299C13.809 12.4031 8.92339 12.2212 4.13377 12.4995C2.40469 12.6 2.58415 16.1584 2.75971 17.3065C6.12707 17.2132 9.53759 17.2627 12.9071 17.2765C13.5171 17.279 14.556 17.3075 15.0292 17.7068C15.2255 18.0263 15.2764 18.5371 15.1235 18.8749C14.8141 19.5584 13.774 19.5816 13.1589 19.5856C11.9678 19.5934 10.7905 19.5857 9.60639 19.5819L2.68919 19.5876L2.70678 36.5931L2.70026 43.0671C2.69351 44.0115 2.68317 44.9692 2.69424 45.9328C2.70393 46.7711 2.58489 48.6893 3.23759 49.2842C3.59465 49.6096 5.38878 49.5397 5.91373 49.5384L20.1962 49.5325C22.5372 49.5334 25.1901 49.4709 27.4889 49.5365L51.926 49.5269L59.1816 49.5429C60.7434 49.5577 62.6116 49.6584 64.1525 49.4557C64.4798 49.4127 65.2101 48.5258 65.1926 48.161C65.2301 46.8937 65.2107 45.6134 65.2063 44.3443L65.2014 37.0275C65.2061 29.7737 65.2015 22.5191 65.1974 15.2654C65.1967 14.0388 65.1338 12.7293 63.6829 12.448C61.9007 12.1024 60.0556 12.2829 58.2503 12.233C55.1792 12.1443 52.11 12.0881 49.0375 12.1156C48.3617 12.1216 47.5835 12.1202 46.9179 12.0053C46.2668 11.0877 45.8656 10.2142 45.4145 9.18727C44.4477 6.98666 43.3151 4.84508 42.4435 2.60391C39.0936 2.31599 35.081 2.55718 31.6838 2.49619C31.1877 2.48731 28.4707 2.43992 28.0954 2.50425C27.4478 2.52615 26.7735 2.5391 26.1309 2.59895ZM10.7524 7.48425C10.7226 7.99804 10.5942 9.29003 10.7993 9.68812C11.2492 9.757 11.7092 9.74056 12.1634 9.74007C13.7279 9.73819 15.2911 9.81832 16.8557 9.7886L17.047 9.72175C17.2057 9.32699 16.6053 7.67226 16.2142 7.60435C14.4742 7.30202 12.5114 7.63155 10.7524 7.48425ZM51.8168 7.51055C51.5887 7.9627 50.8881 9.29385 51.3674 9.67607C52.3184 9.79592 54.5572 9.71661 55.6347 9.7395C56.8229 9.73363 57.6796 9.82687 57.3121 8.3073C57.2401 8.00936 57.2058 7.76183 57.0977 7.4612C55.8079 7.44158 54.2266 7.41324 52.952 7.47374L51.8168 7.51055Z" fill="var(--fill-0, #7A320C)"/>
<path id="Vector_2" d="M32.5432 12.2261C42.42 11.3109 51.163 18.5893 52.0538 28.4683C52.9445 38.3473 45.6444 47.0723 35.7632 47.9385C25.9166 48.8017 17.2289 41.5328 16.3413 31.6883C15.4536 21.8439 22.701 13.1382 32.5432 12.2261ZM33.7461 45.3836C42.1684 45.6281 49.198 39.0068 49.4575 30.5851C49.717 22.1633 43.1083 15.1219 34.687 14.8474C26.2445 14.5722 19.1814 21.2013 18.9212 29.6442C18.6611 38.0872 25.3027 45.1385 33.7461 45.3836Z" fill="var(--fill-0, #7A320C)"/>
<path id="Vector_3" d="M32.0053 17.4978C38.9615 16.2556 45.6025 20.9032 46.8178 27.8642C48.0332 34.825 43.36 41.4482 36.3945 42.6367C29.4668 43.8188 22.8874 39.1765 21.6787 32.2534C20.4699 25.3303 25.0868 18.7332 32.0053 17.4978ZM34.8751 40.2278C40.4538 39.8616 44.6875 35.0558 44.3476 29.4756C44.0077 23.8953 39.2219 19.6389 33.6401 19.9525C28.021 20.2682 23.7299 25.093 24.0721 30.7106C24.4143 36.3282 29.2592 40.5964 34.8751 40.2278Z" fill="var(--fill-0, #7A320C)"/>
<path id="Vector_4" d="M57.6419 14.956C58.6083 14.7631 60.2131 14.8661 61.0814 15.4461C61.8309 15.9547 62.3494 16.7384 62.5243 17.6271C62.9017 19.539 61.6856 21.4586 59.7594 21.818C59.6021 21.8376 59.4444 21.8548 59.2866 21.8694C58.0872 21.9797 56.7911 21.8774 55.8135 21.0536C54.471 19.9224 54.0791 17.3586 55.3125 16.0051C55.9954 15.2557 56.6577 15.0149 57.6419 14.956ZM56.9026 18.4753C57.0316 18.7739 57.1723 19.1236 57.3157 19.4108C58.0656 19.7668 58.1968 19.8902 59.0257 19.7918L59.7503 19.4894C60.0938 18.9803 60.1772 18.8094 60.4113 18.2408C59.857 17.1692 59.4241 16.8183 58.1572 16.9697C57.229 17.3608 57.1339 17.4692 56.9026 18.4753Z" fill="var(--fill-0, #7A320C)"/>
<path id="Vector_5" d="M28.4947 4.60981C28.9155 4.57708 29.3465 4.57765 29.7702 4.58148C32.9988 4.61063 36.2437 4.49647 39.4682 4.63383C40.0035 4.65671 40.4286 4.83276 40.902 5.05578L40.6298 6.08281C40.4353 6.20551 40.126 6.36429 39.9165 6.48065C39.905 6.48562 39.8938 6.49132 39.882 6.49547C39.1484 6.75253 29.0014 6.74683 28.4262 6.44523C28.0238 6.23426 27.9263 5.78902 27.795 5.39093C28.0129 5.01564 28.115 4.80743 28.4947 4.60981Z" fill="var(--fill-0, #7A320C)"/>
</g>
</svg>
