<svg preserveAspectRatio="none" width="100%" height="100%" overflow="visible" style="display: block;" viewBox="0 0 74.0497 71.7335" fill="none" xmlns="http://www.w3.org/2000/svg">
<g id="Group 2085665669">
<path id="Subtract" d="M35.7209 5.18659e-05C37.8082 -0.0105668 37.8632 1.61114 38.3527 3.16411C39.1201 5.57468 39.8554 7.99549 40.5578 10.4258C40.2704 10.7558 39.9166 11.1033 39.6086 11.42C39.9635 13.0088 41.7285 16.0462 42.5578 17.6924C42.0116 17.9357 41.5146 18.3287 40.9865 18.6495C41.8928 20.0537 43.1489 21.5572 43.7199 23.1202C44.4373 25.0844 40.9038 25.0383 39.6584 25.379C39.3983 26.3924 39.4424 27.3439 39.4904 28.3829C40.2777 28.3472 46.0339 28.2153 45.5226 29.6221C44.893 29.6537 44.9572 29.6079 44.7043 30.1485C44.3528 30.4185 43.178 30.2822 42.6984 30.3086C38.4129 30.5456 34.3945 31.2736 30.2209 32.2256L23.3517 33.7667C22.4172 33.9814 21.5105 34.3097 20.5842 34.5567C17.9902 35.2482 9.17251 37.3574 7.82928 39.6016C7.70312 39.8126 7.64572 40.0572 7.71307 40.2989C8.14786 41.8576 13.8482 42.7714 15.3888 43.1661C16.9271 43.5601 18.4878 43.9926 20.0021 44.4688C21.5643 44.96 23.1271 45.6118 24.548 46.4278C25.8947 47.2012 27.0176 48.3447 27.4142 49.8819C27.7289 51.1016 27.6949 52.3767 26.9943 53.4639C25.6983 55.4749 23.301 56.5272 21.2228 57.5186C16.6486 59.7009 10.3835 61.9413 6.63787 65.3809C5.76406 66.1875 5.01823 67.1226 4.42693 68.1543C4.25367 68.5021 4.06462 68.8641 3.94744 69.2354C3.76267 69.8212 3.69376 70.519 3.40838 71.0596C3.26008 71.3404 2.87617 71.5214 2.58416 71.6075C1.99571 71.7809 1.20266 71.8028 0.652521 71.4961C0.346255 71.3254 0.146929 71.0534 0.0607236 70.7149C-0.173333 69.7958 0.320528 68.5118 0.670099 67.6651C1.14141 66.5238 1.85664 65.6038 2.65838 64.6739C5.02854 61.9249 8.2319 60.0148 11.4172 58.3506C13.7063 57.1548 23.0506 53.5676 24.0842 51.7999C24.2152 51.5754 24.2651 51.3202 24.1984 51.0655C24.0348 50.4402 23.3907 49.9681 22.8556 49.671C21.2887 48.801 19.4819 48.345 17.7717 47.8565C16.4086 47.4671 15.0595 47.016 13.7023 46.6045C11.4384 45.9181 8.92799 45.3171 6.87713 44.1163C5.81836 43.4962 5.14634 42.6706 4.84295 41.4708C3.87014 37.6223 8.23026 35.8731 11.0607 34.8028C11.9909 34.4511 13.2171 34.141 13.967 33.4717C14.5184 32.9793 14.7151 31.9765 15.1027 31.3262C16.6337 28.7578 19.6014 28.6961 22.1437 29.6192C23.2532 30.022 24.4676 30.8004 25.6613 30.8545C26.8771 30.9096 30.1232 30.078 31.549 29.7969C32.5962 29.5906 33.6651 29.4576 34.6994 29.1963C34.6699 28.3002 34.6552 26.1476 34.5138 25.3946C33.6516 25.3437 32.7656 25.1636 31.9064 25.0547C31.0177 24.9421 30.5671 24.8312 29.8527 24.2842C29.7363 23.983 29.564 23.6035 29.6379 23.2891C30.0511 21.5345 31.3837 19.7693 32.2101 18.1885C31.602 18.1114 30.8053 18.0269 30.4689 17.4532C30.4182 16.9272 32.6902 12.1536 33.0832 11.293C32.9823 11.0223 32.7265 10.6047 32.5763 10.3409C32.74 8.49231 33.4794 6.35429 34.0148 4.56743C34.3558 3.42915 34.9155 0.735403 35.7209 5.18659e-05ZM57.9191 3.01568C58.6713 3.4244 59.0761 3.87672 59.3556 4.71392C60.1347 7.04648 60.8711 9.4709 61.4963 11.8477C62.0359 13.899 63.602 16.8635 63.6379 18.8887C63.2278 18.9095 62.2932 18.9484 62.4846 19.6573C63.3031 22.6845 65.4368 25.5913 65.6672 28.7579C65.6925 29.1062 64.965 29.2285 64.7355 29.3868C64.8685 31.6455 72.3668 36.0523 63.1515 36.3594C62.0824 36.395 61.1528 36.6258 60.0607 36.4493C59.9397 37.6634 59.9319 38.9013 59.8566 40.1192C59.8626 40.6086 59.7921 41.129 60.3508 41.3067C62.3808 41.9522 64.4605 42.3271 66.3654 43.3438C67.0797 43.7251 68.9076 44.7345 68.382 45.7335C67.8601 46.0099 65.2943 44.8144 64.5715 44.6172C59.1098 43.1279 53.6013 42.2828 47.9601 41.8594C47.4565 41.8055 46.0754 41.5314 45.7697 41.5889L45.7668 41.6905C46.2216 41.9966 47.3103 41.9532 47.882 42.1446C49.8164 42.5312 52.1447 43.1444 54.1242 43.6641C59.4261 45.056 67.4292 47.9572 70.4924 52.7471C71.2204 53.8857 71.472 55.7541 71.0763 57.0381C70.6047 58.5689 69.8939 59.0629 68.6037 59.7686C68.9183 60.0019 69.4424 60.3009 69.8049 60.4903C72.337 61.8135 75.1299 66.8195 73.6262 69.6133C72.1005 70.0098 70.0534 69.7146 68.3517 69.753C67.3081 69.7766 64.5284 70.2934 63.507 69.6827C63.3363 69.5804 63.154 69.2145 63.1467 68.9903C63.5589 67.5688 68.2542 67.21 69.5549 67.171C70.0393 67.1565 71.0278 67.3487 71.5197 67.4649C71.0913 64.4678 69.4865 62.8582 66.839 61.6749C64.7228 62.0928 62.64 64.2894 61.8058 66.2276C61.5186 66.8958 61.688 68.0657 60.8039 68.1397C59.9535 67.9365 59.8071 66.6249 59.9094 65.9141C60.3313 62.9443 63.1266 60.9311 65.3234 59.2061C67.0611 57.8416 67.7397 57.6419 68.2092 55.4073C67.3777 52.9585 65.4911 51.9544 63.3322 50.8477C55.1747 46.6663 45.8631 44.5726 36.9465 42.6788C34.4967 42.1585 29.8865 41.5788 28.4875 39.4122C25.1305 34.1998 37.0665 32.3761 40.1935 31.8731C41.3312 31.6901 42.5314 31.5197 43.6828 31.3936C44.1873 31.3382 45.2152 30.8689 45.4953 30.9249C45.5973 31.1108 45.5213 31.2972 45.5168 31.5069C45.4958 32.2924 44.9751 32.0439 44.4592 32.2823C40.987 33.8863 37.0236 34.0239 33.5842 35.7374C32.6228 36.2162 30.5859 36.5092 31.7072 38.0381C32.0475 38.2469 32.6518 38.4136 33.0422 38.4844C39.1918 39.5986 45.471 39.4215 51.6818 39.9092C52.4736 39.9714 53.2323 40.1104 54.0353 40.1465C53.9656 39.0546 53.9556 37.9592 54.006 36.8663C52.1993 36.8416 47.6458 36.9935 49.0676 33.9913C49.7944 32.4564 50.9526 30.983 51.3967 29.3604C50.6931 29.2522 50.2259 28.9011 49.6232 28.5469L49.426 27.4698C50.1715 25.9234 50.9264 24.0131 51.6437 22.4307C52.0798 21.4685 52.9197 19.5982 53.1984 18.6417C52.7923 18.3167 52.3418 17.9818 51.9972 17.5967C51.9183 16.9983 53.0274 15.4724 53.217 14.7452C53.8884 12.1686 54.5393 9.58711 55.2775 7.02837C55.5818 5.97338 55.7309 4.83529 56.215 3.84575C56.4659 3.33901 57.4106 3.13905 57.9191 3.01568ZM57.5705 7.27837C57.2892 8.6018 56.9814 9.94333 56.5744 11.2344C56.0078 13.0315 55.5736 15.0347 54.7756 16.7442C55.087 16.8098 55.5441 16.8678 55.7785 17.0586C56.177 18.7315 51.8213 26.3828 52.2482 27.252C53.0888 27.7543 55.5565 26.3835 53.5851 30.1104C52.876 31.4509 51.9654 32.7604 51.2902 34.1143C52.481 34.3813 54.8978 34.5308 56.1359 34.5001C56.1708 35.4015 56.1312 39.8124 56.5988 40.2979C56.6325 40.3327 56.6705 40.3593 56.7111 40.3848C57.1675 40.3499 57.3553 39.8871 57.5383 39.4991C57.8777 38.2405 57.7628 35.6974 57.7472 34.335C58.8663 34.2846 59.9748 34.2011 61.0949 34.1475C62.2304 34.0931 63.5177 34.1241 64.6408 34.0049C63.9055 32.7236 61.2905 28.8513 61.4387 27.7305C61.7111 27.3556 62.8157 27.3772 63.3107 27.337C62.3659 25.1753 59.6884 19.0342 59.6037 16.8848C60.0969 16.8279 60.4825 16.7825 60.9806 16.7735C60.1917 14.858 59.4775 12.9124 58.84 10.9415C58.6532 10.3683 57.8566 7.47824 57.5705 7.27837ZM22.8146 31.4043C21.611 30.8437 19.818 30.2077 18.4787 30.3555C16.7131 30.8897 16.1189 31.7604 15.0529 33.1973C16.4232 33.0492 17.421 32.8817 18.7775 32.5733C20.2111 32.2936 21.4986 32.0694 22.8146 31.4043ZM36.3596 4.57036C36.0849 5.40824 34.8086 8.79091 35.1779 9.50689C35.3906 9.91872 35.4692 10.0894 35.3263 10.5567C34.9832 11.6512 34.5862 12.7284 34.1379 13.7842C33.7834 14.6296 33.3201 15.6031 33.1017 16.4795C33.6929 16.4313 34.3507 16.363 34.9377 16.378C34.6717 17.6205 33.9038 19.0883 33.2736 20.2022C32.963 20.7512 32.1399 21.9209 32.0041 22.4874C32.5249 23.1085 35.0674 22.8801 35.9914 23.044C35.9961 23.9438 35.9886 28.97 36.1965 29.292C36.3939 29.282 36.4049 29.2822 36.5861 29.2081C36.8052 29.0643 37.1208 28.8698 37.3224 28.7178C37.5674 27.0698 37.3123 24.7204 37.5148 22.9922C38.7926 22.9518 40.0344 22.975 41.301 22.9502C40.6689 21.7519 38.2569 17.7599 38.301 16.7256C38.4936 16.373 39.3324 16.4693 39.7297 16.4668C39.4509 15.3387 36.9709 10.079 37.1447 9.4854C37.3225 9.42821 37.4745 9.37437 37.6486 9.30669C37.7342 9.07169 36.5617 4.73015 36.3596 4.57036Z" fill="var(--fill-0, #7C340A)"/>
<path id="Vector" d="M32.9619 51.7364C33.3536 51.6825 33.7516 51.6943 34.1394 51.7711C35.3109 51.9941 37.9906 53.1534 38.6655 54.0663C39.3702 55.0197 39.5727 56.7982 38.9111 57.8984C37.0486 60.9075 33.4815 62.4873 30.7132 64.522C29.0025 65.7794 26.5259 67.3162 25.8844 69.4427C25.7337 69.942 26.1916 70.3908 26.4638 70.8037C25.5787 71.5345 25.348 71.5662 24.2144 71.6528C23.5516 71.6566 21.9318 71.7989 21.6449 71.1C20.9385 69.3795 23.22 66.2199 24.399 65.1409C26.9219 62.8318 30.2276 61.1784 33.1218 59.3488C34.4028 58.4442 35.9478 57.7504 36.4726 56.1825C37.1997 54.0102 31.8729 53.1202 32.2242 52.0149C32.4304 51.8096 32.6736 51.7937 32.9619 51.7364Z" fill="var(--fill-0, #7C340A)"/>
<path id="Vector_2" d="M47.2107 49.9359C49.2685 49.7391 51.2941 50.5123 53.179 51.0952C54.7911 51.5938 56.983 52.5933 57.1437 54.5873C57.366 59.0199 50.4548 59.3858 48.2031 62.0182C47.2555 63.1259 49.1597 64.0629 49.9637 64.5219C53.8623 66.7475 49.1544 69.6506 46.7815 70.0882C46.3138 70.1868 45.7001 70.0799 45.758 69.4841C46.2201 68.7422 50.8431 67.5083 49.0593 66.0216C47.8287 64.996 46.9044 65.0469 45.9119 63.4822C45.3783 58.4953 52.2801 58.8679 54.6067 55.8009C54.727 55.6424 54.8451 55.485 54.9615 55.3235C54.8778 54.9794 54.7846 54.6271 54.5754 54.335C52.9386 52.0491 46.7687 51.433 46.1109 50.5368C46.051 50.4552 46.0737 50.4262 46.089 50.3281C46.3875 50.0082 46.8015 49.9554 47.2107 49.9359Z" fill="var(--fill-0, #7C340A)"/>
<path id="Vector_3" d="M24.2791 36.8187C24.6017 36.7315 24.9747 36.6283 25.2594 36.8609L25.2335 37.0137C25.0606 37.136 24.993 37.1754 24.8018 37.2663C24.2515 37.6976 23.3737 39.0015 23.1392 39.7292C24.3956 41.6504 27.8587 42.9834 30.0023 44.0222C31.7449 44.8281 34.3635 45.1525 35.6022 46.6617C35.7851 46.8847 35.6576 47.3299 35.351 47.4081C34.123 47.7212 32.6027 46.9018 31.4617 46.5102C29.6026 45.8721 27.9619 45.0178 26.2509 44.0789C25.0729 43.434 23.5987 43.0008 22.5316 42.1768C19.2482 39.641 21.5287 37.9501 24.2791 36.8187Z" fill="var(--fill-0, #7C340A)"/>
<path id="Vector_4" d="M24.2795 36.8187C24.6021 36.7315 24.9751 36.6283 25.2597 36.8609L25.2338 37.0137C25.061 37.136 24.9934 37.1754 24.8021 37.2663C24.5922 37.118 24.4352 37.0245 24.2795 36.8187Z" fill="var(--fill-0, #5A2401)"/>
<path id="Vector_5" d="M29.9785 57.9413C30.1081 57.915 30.1845 57.9334 30.3183 57.9439C30.472 58.1247 30.5699 58.5215 30.3786 58.6508C29.1084 59.5089 27.5098 59.8792 26.1338 60.6078C23.7287 61.8814 21.1564 63.104 19.1998 65.0372C18.539 65.6899 18.1541 66.5553 17.5844 67.2746C17.4216 67.4793 17.1359 67.4756 16.8887 67.4872C16.2668 67.2447 16.3014 67.03 16.1388 66.4301C16.8059 63.827 18.0687 62.904 20.2922 61.5148C23.3449 59.6075 26.509 58.7386 29.9785 57.9413Z" fill="var(--fill-0, #7C340A)"/>
<path id="Vector_6" d="M25.116 19.8947C25.3377 19.8911 25.5143 19.9515 25.7291 20.0074C26.2077 20.499 25.2968 20.8115 24.9416 20.9432C24.1468 22.0035 23.8409 22.7118 23.258 23.8786C22.8257 24.7437 21.4781 24.8517 20.5852 25.0015L20.3044 24.937C19.8064 24.4182 20.406 23.1474 21.0084 23.147L21.2085 23.399L21.3321 23.3828C21.9541 22.385 22.6935 21.2477 23.5822 20.4562C24.0465 20.0426 24.5249 19.9847 25.116 19.8947Z" fill="var(--fill-0, #7C340A)"/>
<path id="Vector_7" d="M10.7205 68.1226C11.4719 68.0141 14.08 67.876 14.3861 68.6782C14.2312 69.3503 12.6321 69.7067 12.0327 69.811C11.0823 69.909 8.40544 70.1728 8.1076 68.9504C8.37469 68.2126 10.0763 68.1671 10.7205 68.1226Z" fill="var(--fill-0, #7C340A)"/>
<path id="Vector_8" d="M41.2739 47.1529C42.3571 47.1322 46.8069 47.7175 47.1743 48.6536L47.106 48.8075C46.8813 48.944 46.7907 48.9616 46.5457 49.0298C46.1905 49.0414 45.835 49.027 45.4819 48.9869C44.3646 48.8544 40.9948 48.5183 40.3742 47.7405C40.3075 47.4718 40.2978 47.5807 40.4078 47.3304C40.6438 47.1539 40.9731 47.1702 41.2739 47.1529Z" fill="var(--fill-0, #7C340A)"/>
<path id="Vector_9" d="M15.1389 39.2403C15.7001 39.2572 16.5027 39.6811 17.0178 39.9412C16.945 40.1726 16.6646 40.4104 16.4813 40.5908C15.6534 40.8698 14.9843 40.2196 14.4982 39.6221L15.1389 39.2403Z" fill="var(--fill-0, #7C340A)"/>
<path id="Vector_10" d="M56.2626 63.0146C56.7159 63.015 57.4057 62.9762 57.7147 63.3703L57.683 63.4994L57.4706 63.5525C57.2892 63.5961 57.1055 63.6288 56.9203 63.6505C56.5902 63.6899 56.4307 63.6613 56.1869 63.4701C56.1414 63.1766 56.1258 63.2971 56.2626 63.0146Z" fill="var(--fill-0, #020000)"/>
<path id="Vector_11" d="M47.8813 42.1436C47.3096 41.9522 46.2205 41.9958 45.7658 41.6894L45.7688 41.5881C46.0742 41.5304 47.4554 41.8044 47.9591 41.8583L47.8813 42.1436Z" fill="var(--fill-0, #B76619)" fill-opacity="0.0627451"/>
</g>
</svg>
