<svg preserveAspectRatio="none" width="100%" height="100%" overflow="visible" style="display: block;" viewBox="0 0 66.202 70.6821" fill="none" xmlns="http://www.w3.org/2000/svg">
<g id="Group 2085665668">
<path id="Vector" d="M40.9374 0.00977805C44.5233 -0.101426 47.7949 0.708511 50.054 3.85123C50.5612 4.55664 50.7148 5.83381 51.5476 6.36296C53.0399 7.31135 54.9677 7.29003 56.5359 8.06633C57.6134 8.75922 57.2519 9.53061 56.1434 9.87692C54.2444 10.4702 51.5979 9.96569 50.1827 11.5959C49.9812 11.8283 49.7668 12.1503 49.592 12.3991C50.2203 14.6363 51.1666 15.9625 51.7036 18.6315C52.8714 24.7459 51.5877 31.0744 48.1297 36.2505C45.8148 39.715 41.556 43.2049 37.5871 44.4379C36.3445 44.8238 35.0177 45.0658 33.7358 45.3225C35.952 47.0564 36.6726 48.8436 38.6641 50.414C40.769 50.4027 42.7566 50.0845 44.8435 49.8621C47.3787 49.592 50.0405 49.6105 52.0727 47.8306C53.7258 46.3827 54.4576 43.9264 56.7807 43.3776C58.3592 43.0048 59.7987 44.5459 60.0968 45.9704C60.4018 47.2876 59.4878 48.5191 58.8217 49.5702C60.2904 49.3979 63.3376 49.1417 64.6459 50.3123C65.3947 50.9822 66.6023 52.7591 66.0709 53.8002C65.0109 55.8776 61.3417 55.4447 59.3066 55.7052C55.5855 56.215 51.8951 56.9279 48.2519 57.8407C46.7299 58.2263 45.736 58.4101 44.2587 59.0009C46.2207 59.6604 52.5069 63.6365 53.652 65.4197C55.2856 67.9636 51.9971 70.2664 49.3322 70.073C46.539 69.8702 45.807 69.3443 43.6164 67.6549C42.5242 66.822 41.4559 65.9584 40.4126 65.065C37.7298 62.7346 35.3429 60.5626 31.5684 60.7939C27.5552 61.0399 23.6262 62.4868 19.8803 63.8307C18.1209 64.4619 16.3388 65.0543 14.5967 65.7309C13.0141 66.3458 11.4472 67.0566 9.88171 67.7186C7.53438 68.7113 5.19733 69.8966 2.74213 70.5888C2.21817 70.7365 1.7159 70.6998 1.19695 70.5422C0.779009 70.4153 0.272382 70.1825 0.0743456 69.765C-0.0171198 69.5721 -0.0218467 69.3831 0.0472852 69.1832C0.196947 68.7497 0.479499 68.6165 0.873625 68.4315C2.40036 67.7147 4.08483 67.1872 5.6516 66.5385C8.82694 65.2237 12.0206 64.0013 15.2262 62.7658C20.0067 60.9232 26.9253 58.0987 31.9549 57.8379C33.5703 57.7542 34.9816 58.2072 36.4817 58.7436C40.8907 60.7183 43.2542 64.1897 47.3523 66.4703C48.9892 67.3811 49.8549 67.4058 51.6437 67.0161C51.3679 66.6094 50.9863 66.1547 50.5849 65.8532C47.6428 63.6424 44.5853 61.5031 41.4886 59.5195C40.818 59.09 38.8141 58.471 38.5895 58.0913C38.9535 56.9314 46.7728 55.4806 48.2472 55.126C49.8764 54.7342 52.2599 54.0982 53.9307 53.8655C56.634 53.4889 59.4461 53.0933 62.1731 52.9656C62.5253 52.9521 62.7973 52.9312 62.8834 52.5816C62.747 52.2497 62.4631 52.1005 62.165 51.8927C59.6125 51.8465 56.3474 52.9161 55.7768 49.946C56.1497 49.0566 58.1663 46.5511 57.4734 45.928C56.568 45.8646 54.623 49.6458 53.1061 50.4984C49.8951 52.3032 46.2597 52.6014 42.6558 52.8365C39.0874 53.0694 35.8436 53.4259 32.3049 53.8015C30.656 53.9309 31.1424 54.4939 31.2701 55.397L31.1493 55.5256C29.4133 55.9999 27.8296 54.5685 26.146 54.5149C24.7241 54.4696 22.3466 54.8575 20.8868 55.0544C19.8488 55.1944 18.8119 55.3748 17.7711 55.4893C16.3297 55.648 14.9559 55.7436 13.5288 56.0357C11.4161 56.4682 9.36258 57.2043 7.26693 57.7179C6.42605 57.924 1.39008 59.4368 0.933119 59.1894C0.538715 58.976 0.143755 58.4357 0.0589623 57.9941C0.0195775 57.7888 0.0731407 57.6476 0.192963 57.4814C0.383585 57.2169 0.762327 56.9915 1.06026 56.874C1.49905 56.7009 2.00763 56.6254 2.46403 56.4927C4.13941 56.0054 5.816 55.588 7.51038 55.1768C9.9147 54.5934 12.2915 53.9076 14.7285 53.4622C18.2818 52.8129 21.8764 52.3587 25.4482 51.8215L25.4243 51.7931C23.5565 49.5302 21.8747 45.967 19.748 44.1508C19.3023 43.77 18.5396 43.5124 17.9914 43.3133C16.548 42.789 15.0253 42.4766 13.5607 42.0115C12.0254 41.5238 10.3095 40.5428 8.72537 40.3994C6.47192 40.1953 3.14988 41.9042 1.05285 40.5376C0.520088 40.1905 0.170537 39.5771 0.0445052 38.9616C-0.110995 38.2018 0.300367 37.3153 0.724333 36.7068C1.86927 35.0632 8.01395 31.9116 10.1691 30.4938C13.0411 28.6042 15.9428 26.6537 18.5344 24.3878C21.3979 21.8843 23.9664 19.0708 27.1015 16.8894C28.5978 15.8482 30.2696 14.9678 32.0839 14.6607C32.0797 14.6435 32.0756 14.6264 32.0715 14.6091C30.9631 7.11331 33.7021 1.71704 40.9374 0.00977805ZM3.06092 38.6493C3.65438 38.576 4.71285 38.5185 5.22726 38.3302C10.805 36.2903 16.6258 33.4993 21.2678 29.7269C21.8627 29.2435 24.1082 27.651 24.8335 27.8594C25.0173 28.1959 24.9563 29.1123 24.7326 29.3707C21.9861 32.5455 16.7853 35.3326 13.6156 37.669C15.9927 37.2305 18.4564 37.0315 20.7756 36.3052C26.854 34.4019 33.3397 31.3388 37.1323 26.0148C40.1073 21.864 39.9669 16.824 33.7444 17.2206C33.4485 17.2396 33.1136 17.2191 32.8061 17.2375C27.9017 18.3407 24.5032 22.7085 20.9912 25.7681C19.0722 27.4398 15.9945 29.718 13.9113 31.1436C12.0583 32.3887 10.1645 33.572 8.23311 34.6915C7.00625 35.3891 5.74909 36.0411 4.54623 36.7767C3.68959 37.3006 3.43577 37.7907 3.06092 38.6493ZM16.6666 39.6633C16.3763 39.6754 16.0668 39.65 15.8481 39.8296C16.0167 39.9747 16.2143 39.9616 16.4473 39.9855C19.9352 41.3523 26.0367 42.5382 29.6047 42.952C40.0025 44.1578 49.5627 33.7401 49.1066 23.6275C49.0324 21.9822 49.2423 19.9721 48.7593 18.3593C48.1634 16.3695 47.1767 15.0593 46.8697 12.9122C46.4717 10.1296 48.9178 10.0478 48.6513 7.60743C47.2775 1.64948 39.3843 1.27176 36.1239 5.81426C34.2513 8.42339 34.0261 11.5681 34.5062 14.5513C38.8028 14.6879 41.4471 16.2016 41.6826 20.9333C41.7173 24.1792 40.0711 27.3762 37.8861 29.6405C33.3788 34.3112 27.5343 37.0804 21.3641 38.8159C19.4222 39.3621 18.7093 39.6171 16.6666 39.6633ZM34.117 50.9248C34.4323 50.8856 34.7009 50.8932 34.9341 50.6973C34.8746 50.2753 31.5785 46.6981 30.9953 46.3233C29.2264 45.1864 25.6173 44.7001 23.4671 44.3906C23.7453 45.0602 25.1502 46.6894 25.6657 47.4024C26.5755 48.6605 27.4877 50.7708 28.532 51.8105C31.0191 51.1564 31.9998 51.318 34.117 50.9248Z" fill="var(--fill-0, #7D330A)"/>
<path id="Vector_2" d="M42.968 5.99696C44.9746 5.88297 45.774 7.84063 44.1122 8.89447C43.9602 8.8967 43.8081 8.89512 43.6562 8.88974C42.8011 8.85564 42.1398 8.03931 42.2125 7.19815C42.2665 6.57299 42.5087 6.39025 42.968 5.99696Z" fill="var(--fill-0, #7D330A)"/>
<path id="Vector_3" d="M16.4469 39.9863C16.2139 39.9624 16.0163 39.9754 15.8477 39.8304C16.0664 39.6507 16.3759 39.6762 16.6662 39.6641C16.5871 39.7726 16.5096 39.868 16.4469 39.9863Z" fill="var(--fill-0, #AB5613)" fill-opacity="0.2"/>
<path id="Vector_4" d="M21.6426 56.7387C22.1943 56.6692 24.5148 56.6144 24.8214 57.0059C24.0305 58.4148 14.1446 59.6125 12.2032 59.7918C11.473 59.8593 10.5471 60.1946 9.82158 60.3197C9.04695 60.3988 7.01608 60.6241 6.47165 60.1357C6.34608 59.7651 6.33728 59.8903 6.40613 59.5239C7.16074 58.6764 19.5143 56.9944 21.6426 56.7387Z" fill="var(--fill-0, #7D330A)"/>
<path id="Vector_5" d="M44.2521 54.7902C43.4237 55.1145 41.8578 55.3304 40.9217 55.5179C39.8291 55.7368 36.7377 56.7301 35.7588 56.5246C35.4696 56.2813 35.526 56.3904 35.4238 56.0884C35.5805 55.5838 36.3901 55.4001 36.8445 55.2318C39.1514 54.3773 41.3116 54.2655 43.7267 54.1426C43.8494 54.5213 43.7923 54.5471 44.0511 54.7705L44.2521 54.7902Z" fill="var(--fill-0, #7D330A)"/>
<path id="Vector_6" d="M43.7246 54.1438C44.36 54.1032 45.341 53.9805 45.92 54.1967L45.9529 54.3242C45.5385 54.6029 44.7685 54.6951 44.25 54.7913L44.049 54.7717C43.7902 54.5483 43.8473 54.5225 43.7246 54.1438Z" fill="var(--fill-0, #4F1900)"/>
</g>
</svg>
