<svg preserveAspectRatio="none" width="100%" height="100%" overflow="visible" style="display: block;" viewBox="0 0 71.0065 70.0004" fill="none" xmlns="http://www.w3.org/2000/svg">
<g id="Group 2085665667">
<path id="Vector" d="M55.7701 10.1719C55.9049 10.2324 56.0388 10.295 56.1716 10.3596C56.7111 10.6238 57.0207 10.9155 57.2135 11.4998C58.239 14.6088 58.9608 17.7539 59.7981 20.918C60.4778 23.5167 61.4256 26.097 61.8562 28.7523C61.9521 29.344 61.7917 30.354 61.1282 30.5325C60.7107 30.6447 60.4047 30.4124 60.0631 30.2164C59.1451 28.1494 58.6238 25.511 57.9866 23.3237C57.2374 20.7518 56.5882 18.7168 56.1554 16.0675C55.851 17.0204 55.7698 19.3598 55.6956 20.4656L55.307 25.9938C56.5105 26.3836 57.4171 26.6204 57.8858 27.9595C58.2699 29.057 58.0118 29.9239 57.5615 30.9278C56.788 32.6522 55.7842 32.8867 54.1639 33.4579C54.0123 34.5847 54.1436 35.7941 54.0665 36.9318C53.681 42.6237 53.0468 48.3141 52.4959 53.9927C52.243 56.6009 51.9144 59.2285 51.7986 61.8408C52.2569 62.4221 52.9866 62.804 53.451 63.4855C54.5317 65.0718 54.0669 66.2843 52.2563 66.8407C51.9054 66.9485 51.3032 67.1122 51.0155 67.3263C50.6976 67.3761 50.3691 67.3744 50.1421 67.5505C50.4037 67.6647 50.8097 67.5643 51.0569 67.4416C55.4031 67.4295 59.7492 67.4439 64.0952 67.4851C65.2088 67.4986 70.1311 67.1824 70.8724 68.3828C71.432 69.2892 70.124 69.9632 69.0952 69.9694C64.0944 69.9993 59.0848 70.0036 54.0795 69.9986L27.2957 69.9855L6.26435 69.9715C5.44046 69.9655 1.54674 70.0481 1.03207 69.8665C0.601666 69.7152 0.25398 69.3911 0.0730324 68.9723C-0.301437 68.1261 0.853898 67.6196 1.5015 67.5475C3.12913 67.3666 4.82698 67.4587 6.47013 67.442C9.26811 67.4138 12.0667 67.4118 14.8647 67.4091C15.3468 67.4087 17.5585 67.4718 17.8869 67.3364C17.4674 66.434 10.2181 65.5638 13.3282 61.4174C17.3015 56.1202 22.3937 50.8601 24.7996 44.5602C25.0699 43.8524 25.0235 42.3503 25.0184 41.5648C22.9646 38.2296 19.7465 39.9865 17.079 38.1558C16.2017 37.5538 15.8352 36.5859 15.6504 35.5791C15.0658 32.3948 15.8101 20.8774 16.6749 17.4887C16.8563 16.7778 17.1354 16.084 17.5579 15.4807C18.8188 13.6802 21.2297 13.1821 23.2517 12.835C28.0968 12.0032 30.0312 12.7367 34.6741 13.6718C35.5925 13.8567 36.6113 13.9956 37.5469 14.0538C38.4384 14.1094 39.4264 13.9441 40.2803 14.2431C42.7805 15.1187 43.3665 17.3732 44.2295 19.5769C44.6183 20.5695 45.0729 21.5402 45.5191 22.5081C45.9712 23.4887 46.448 24.4774 47.3673 25.1098C48.1891 25.675 49.2832 25.8688 50.2106 26.2123C50.7029 26.3946 51.1756 26.6549 51.6858 26.7861C51.9541 26.8551 52.1892 26.8746 52.4618 26.8233C52.8698 26.4718 52.9489 24.9738 53.0108 24.3983C53.435 20.4504 53.513 16.5157 54.1704 12.5858C54.3975 11.2286 54.7224 10.9184 55.7701 10.1719ZM27.5014 39.5291C28.2819 40.4653 30.3653 42.0154 31.3185 42.8886C32.0476 43.5565 32.6284 44.2736 33.3852 44.9313C34.7412 46.1098 36.9651 47.1161 37.8153 48.6912C38.3603 49.7008 38.6744 51.2098 39.0109 52.3258C39.5457 54.0993 40.0551 55.5787 40.7766 57.2698C41.1733 58.4583 41.6775 59.878 42.2916 60.9617C42.484 61.3013 45.4162 60.8051 45.6387 60.5222C45.303 59.3026 44.8058 58.1397 44.4675 56.9228C43.7691 54.4105 41.975 46.3797 40.8156 44.6793C40.3195 43.9517 39.6846 43.1927 38.9827 42.654C38.18 42.0379 35.7282 41.0648 35.3457 40.2745C35.312 40.2047 35.2839 40.101 35.3228 40.031C35.7015 39.35 36.7079 39.1603 37.1361 38.4999L37.1681 38.4513C38.7592 36.0002 39.6732 26.5859 39.9399 23.2713C39.9891 22.6608 39.8862 21.0714 39.8748 20.3556C39.8625 19.5717 39.8971 18.5773 39.8725 17.8014C38.9287 17.0414 38.4669 16.9997 37.2618 16.8797C36.4831 16.8023 35.6214 16.679 34.8446 16.5535C34.5231 17.9662 34.2308 19.3585 33.805 20.7458C32.9886 23.4055 30.2492 29.7449 31.6993 32.0598C32.0627 32.6399 32.6327 33.0985 33.0923 33.6004C34.0063 34.5981 35.1173 36.2301 34.8137 37.6434C34.676 38.284 34.2986 38.8127 33.7452 39.1627C32.9895 39.6407 31.8841 39.7829 31.0222 39.5679C29.5279 39.1951 28.3779 37.3478 27.6873 37.2636C27.3126 37.6865 27.4497 38.6823 27.4846 39.2592L27.5014 39.5291ZM23.0334 62.9419C23.1161 63.1416 23.4291 63.9096 23.5403 64.0388C24.0216 64.5988 24.607 64.9164 24.9817 65.5988C25.2842 66.1494 24.9551 67.0066 25.1388 67.3827C25.492 67.4745 29.1716 67.4332 29.8319 67.436L36.8194 67.4317C37.9722 67.4318 39.5741 67.4871 40.697 67.4277C40.8362 63.5063 39.2594 60.2392 37.9655 56.6624C37.3239 54.8889 36.9346 52.9804 36.3038 51.197C35.9536 50.2071 34.7643 48.6637 33.7746 48.3024C32.8216 49.6387 32.0853 51.3562 31.2623 52.7833C29.782 55.35 27.9821 57.5942 25.9103 59.7074C24.8883 60.7497 23.8038 61.693 23.0334 62.9419ZM39.375 40.0074C40.2938 41.2406 42.6446 42.2914 43.1343 43.5751C44.9883 48.4345 45.9887 53.7482 47.5351 58.7311C47.7922 59.5592 48.5411 61.2483 49.5087 61.1808C49.6705 57.7628 50.1733 54.4778 50.5048 51.0824C50.7875 48.1865 51.047 45.2245 51.2495 42.3227C51.4466 39.4976 51.767 36.5392 51.825 33.7252C48.2725 33.646 45.5183 33.0362 42.6657 30.9036C42.3386 30.659 41.8913 30.1565 41.6396 29.9944C41.5407 30.5795 41.4451 31.164 41.3888 31.7547C41.1097 34.6817 40.4268 37.2692 39.375 40.0074ZM19.7109 57.8061C21.1636 58.8831 21.1544 59.2022 22.201 60.4612L22.6879 59.7053C25.6868 56.6384 28.5928 53.0765 30.4288 49.1766C30.8642 48.2515 31.855 46.5996 30.7818 45.8396C29.7257 45.0916 28.477 43.5112 27.3929 42.9055C26.8027 48.0215 24.7297 50.5658 21.8734 54.6857C21.2701 55.5561 20.209 56.9349 19.7109 57.8061ZM43.1143 63.2912C43.0217 63.9285 42.8216 66.3561 43.764 66.3492C45.4636 66.3366 47.7527 66.2534 49.377 65.8113C49.7403 65.6977 50.8832 65.3941 51.1231 65.2134C51.1616 65.1181 51.2433 64.9832 51.1605 64.8898C49.5074 63.0284 46.5108 62.6559 44.2214 62.8882C43.9068 62.9949 43.397 63.1506 43.1143 63.2912ZM20.0163 65.606C20.4581 65.7335 21.5476 66.1182 21.9339 65.9349C21.9799 65.7493 21.9433 65.6157 21.8209 65.4551C20.7954 64.1095 20.3422 63.53 20.2707 61.7633C19.8135 61.2014 18.7983 60.3511 18.1238 60.1597C17.6831 60.4261 14.8587 62.7163 15.4451 63.2322C16.5916 64.2408 18.5805 65.0137 20.0163 65.606ZM24.7844 37.4005C25.0683 36.8 25.4284 36.1527 25.2161 35.4942C25.074 35.0534 24.1268 34.2397 23.7845 34.0548C23.5582 34.7171 22.8757 37.1073 23.8652 37.4429C24.1578 37.5422 24.5262 37.6047 24.7844 37.4005ZM54.2125 31.2315C54.5288 31.1095 54.9041 30.9852 55.1762 30.7921C56.1977 30.084 56.6489 28.4885 55.1847 28.2747C54.9288 28.2375 54.6698 28.2269 54.4117 28.2431C53.867 28.806 54.0791 30.4917 54.2125 31.2315ZM22.1623 27.1322C21.8288 27.1364 20.2558 27.085 20.0966 27.1351C19.566 27.1747 18.7405 27.2594 18.2318 27.2476C17.8309 28.8458 17.5952 34.2206 18.2406 35.8882C18.3913 36.2774 19.8313 36.6269 20.4035 36.8779C20.7305 36.9542 20.6897 36.9963 20.9672 36.902C21.4254 36.3044 21.3144 30.7656 21.4877 29.6258C21.6315 28.6795 21.9677 27.9516 22.1623 27.1322ZM31.507 37.3519C31.7837 37.2981 32.144 37.2642 32.3427 37.0865C32.5243 36.5365 31.2715 34.4494 30.7788 34.2411C29.7264 35.5088 29.6284 36.8909 31.507 37.3519ZM32.3002 16.4389C31.8181 16.4188 30.2789 16.5023 30.0467 16.431C29.5398 17.2668 28.8457 17.8168 28.3923 18.6446C27.4104 20.4374 26.7198 22.3395 25.9484 24.2035C25.1252 26.1931 24.4392 27.5035 23.9988 29.6653C24.9403 32.016 25.8117 32.9345 28.0621 34.3217L28.1479 34.2505L28.1368 34.0938C28.317 33.4695 28.5079 32.8483 28.7095 32.2305C27.8832 31.7951 26.9914 31.2845 26.3142 30.6335C27.9753 27.394 29.6009 24.3798 30.8302 20.9297C31.4083 19.3076 32.0451 18.2097 32.3002 16.4389ZM41.9182 20.2257C42.1842 22.4071 41.944 24.9037 41.7665 27.078C41.7483 27.2995 43.3392 28.5617 43.604 28.7926C45.711 30.4384 49.1617 31.7664 51.861 31.748C52.2006 31.3426 52.279 29.7607 52.0006 29.3506C51.3991 29.0919 50.1803 28.8657 49.4801 28.6349C46.1889 27.5501 44.3704 26.0819 43.1249 22.8327C42.8228 22.0449 42.4547 20.8345 41.9182 20.2257ZM27.9189 15.1015C27.5414 15.0905 26.8441 15.0907 26.4924 15.0539C18.3032 15.4219 19.0125 16.6178 18.3172 24.2686C18.2957 24.5049 18.4238 24.8273 18.5672 25.0069C18.9107 25.1823 19.0024 25.1417 19.4052 25.0181C19.9792 24.9025 22.965 24.6438 23.1292 24.2559C24.0148 22.1626 24.8609 20.0289 25.7892 17.9444C26.2622 16.8883 27.1937 15.9778 27.9189 15.1015Z" fill="var(--fill-0, #7B320B)"/>
<path id="Vector_2" d="M36.5872 0.0218842C39.9016 -0.233533 42.1976 1.76791 42.9092 4.92175C43.3681 4.98201 45.7521 5.14541 45.2715 6.17197C44.9187 6.9254 43.6177 7.22687 42.8656 7.48613C42.815 7.66699 42.7591 7.84622 42.6977 8.02366C41.9579 10.1434 40.807 11.4964 38.8119 12.464C38.1788 12.6552 37.5267 12.7771 36.8673 12.8274C30.6529 13.2969 28.3777 6.4407 32.134 2.17839C33.3502 0.798259 34.768 0.147633 36.5872 0.0218842ZM36.9609 10.8538C39.7458 10.3041 41.1922 8.00513 40.7573 5.26732C40.5029 3.665 38.3624 1.7079 36.718 2.14083C36.1716 2.20918 35.6625 2.23645 35.155 2.45659C31.9447 3.84905 31.3337 9.27592 34.9275 10.6065C35.5915 10.8522 36.2544 10.8675 36.9609 10.8538Z" fill="var(--fill-0, #7B320B)"/>
</g>
</svg>
